<svg width="40" height="40" viewBox="0 0 40 40" fill="none" xmlns="http://www.w3.org/2000/svg">
<rect width="40" height="40" rx="16" fill="#FFC258"/>
<g clip-path="url(#clip0_199_667)">
<path d="M20.5481 14.2325C21.3572 13.475 22.5014 12.2658 22.9597 11.1125C23.1722 10.5783 22.7456 10 22.1706 10H17.1706C16.5956 10 16.1689 10.5775 16.3814 11.1125C16.8397 12.2658 17.9839 13.475 18.7931 14.2325C14.3114 14.8983 10.5039 20.515 10.5039 25C10.5039 27.7575 12.7464 30 15.5039 30H23.8372C26.5947 30 28.8372 27.7575 28.8372 25C28.8372 20.515 25.0297 14.8983 20.5481 14.2325ZM18.5406 21.4675L21.0756 21.89C22.1931 22.0758 23.0047 23.0342 23.0047 24.1675C23.0047 25.5458 21.8831 26.6675 20.5047 26.6675V27.5008C20.5047 27.9608 20.1314 28.3342 19.6714 28.3342C19.2114 28.3342 18.8381 27.9608 18.8381 27.5008V26.6675H18.6147C17.7247 26.6675 16.8956 26.1892 16.4497 25.4183C16.2197 25.02 16.3556 24.5108 16.7539 24.28C17.1506 24.0492 17.6614 24.185 17.8922 24.5842C18.0406 24.8408 18.3181 25.0008 18.6147 25.0008H20.5047C20.9639 25.0008 21.3381 24.6267 21.3381 24.1675C21.3381 23.8525 21.1122 23.5858 20.8014 23.5342L18.2664 23.1117C17.1489 22.9258 16.3372 21.9675 16.3372 20.8342C16.3372 19.4558 17.4589 18.3342 18.8372 18.3342V17.5008C18.8372 17.0408 19.2106 16.6675 19.6706 16.6675C20.1306 16.6675 20.5039 17.0408 20.5039 17.5008V18.3342H20.7272C21.6164 18.3342 22.4464 18.8133 22.8922 19.5842C23.1222 19.9825 22.9864 20.4917 22.5881 20.7225C22.1906 20.9533 21.6806 20.8175 21.4497 20.4183C21.3006 20.1608 21.0239 20.0017 20.7272 20.0017H18.8372C18.3781 20.0017 18.0039 20.3758 18.0039 20.835C18.0039 21.15 18.2297 21.4167 18.5406 21.4683V21.4675Z" fill="#650B14"/>
</g>
<defs>
<clipPath id="clip0_199_667">
<rect width="20" height="20" fill="white" transform="translate(9.66797 10)"/>
</clipPath>
</defs>
</svg>
