<svg width="80" height="80" viewBox="0 0 80 80" fill="none" xmlns="http://www.w3.org/2000/svg">
<rect width="80" height="80" rx="24" fill="#FFC258"/>
<g clip-path="url(#clip0_199_249)">
<path d="M33.6074 33.3332C32.6417 33.3195 31.711 32.9694 30.9757 32.3432C29.4403 30.9353 28.5102 28.9873 28.3807 26.9082C27.9757 22.7515 30.2424 20.3015 32.6907 20.0282C33.2806 19.9624 33.8778 20.0162 34.4465 20.1863C35.0152 20.3564 35.5438 20.6393 36.0007 21.0182C36.6828 21.6328 37.2366 22.3763 37.6302 23.2058C38.0238 24.0353 38.2494 24.9345 38.294 25.8515C38.6674 29.7232 36.604 33.3332 33.6074 33.3332ZM24.7557 43.3332C23.8688 43.3129 23.0221 42.9595 22.384 42.3432C20.9732 40.8742 20.144 38.9428 20.0507 36.9082C19.684 32.7515 21.7274 30.3015 23.9357 30.0282C24.474 29.9667 25.0193 30.0234 25.5334 30.1944C26.0475 30.3654 26.5181 30.6465 26.9124 31.0182C28.1803 32.3151 28.918 34.0389 28.9807 35.8515C29.3157 39.7232 27.2657 43.3332 24.7557 43.3332ZM46.394 33.3332C43.3774 33.3332 41.3374 29.7232 41.7157 25.8465C41.7603 24.9295 41.986 24.0303 42.3795 23.2008C42.7731 22.3713 43.3269 21.6278 44.009 21.0132C44.4655 20.6365 44.9929 20.3552 45.56 20.186C46.1271 20.0168 46.7225 19.9632 47.3107 20.0282C49.759 20.3015 52.0257 22.7515 51.6207 26.9082C51.4911 28.9878 50.561 30.9363 49.0257 32.3449C48.2899 32.9699 47.3594 33.3194 46.394 33.3332ZM55.089 43.3332C51.9457 43.3332 50.3774 39.7232 50.7307 35.8465C50.8008 34.0223 51.5644 32.2936 52.8657 31.0132C53.2786 30.6388 53.7666 30.3568 54.2972 30.186C54.8277 30.0153 55.3886 29.9598 55.9424 30.0232C58.2224 30.2965 60.334 32.7465 59.9574 36.9032C59.8515 38.9522 58.9899 40.8892 57.539 42.3399C56.8717 42.9601 55.9998 43.3135 55.089 43.3332ZM46.6674 59.9999C45.2429 60.0279 43.8363 59.6801 42.589 58.9915C41.791 58.5711 40.9027 58.3514 40.0007 58.3514C39.0987 58.3514 38.2104 58.5711 37.4124 58.9915C32.3907 61.8032 26.5374 58.7115 26.6674 51.6665C26.6674 43.9399 34.179 36.6665 40.0007 36.6665C45.8224 36.6665 53.334 43.9399 53.334 51.6665C53.334 56.5732 50.5924 59.9999 46.6674 59.9999Z" fill="#650B14"/>
</g>
<defs>
<clipPath id="clip0_199_249">
<rect width="40" height="40" fill="white" transform="translate(20 20)"/>
</clipPath>
</defs>
</svg>
