<svg width="64" height="64" viewBox="0 0 64 64" fill="none" xmlns="http://www.w3.org/2000/svg">
<rect width="64" height="64" rx="24" fill="#FFC258"/>
<g clip-path="url(#clip0_199_356)">
<path d="M44.0019 32C44.0015 31.2644 43.9346 30.5302 43.8019 29.8067L47.8592 27.4667L43.8592 20.5333L39.8005 22.8787C38.6799 21.9199 37.3922 21.1759 36.0019 20.684V16H28.0019V20.684C26.6115 21.1759 25.3238 21.9199 24.2032 22.8787L20.1445 20.5333L16.1445 27.4667L20.2019 29.8067C19.9353 31.2567 19.9353 32.7433 20.2019 34.1933L16.1445 36.5333L20.1445 43.4667L24.2032 41.1227C25.3239 42.081 26.6116 42.8245 28.0019 43.316V48H36.0019V43.316C37.3922 42.8241 38.6799 42.0801 39.8005 41.1213L43.8592 43.4667L47.8592 36.5333L43.8019 34.1933C43.9346 33.4698 44.0015 32.7356 44.0019 32ZM36.0019 32C36.0019 32.7911 35.7673 33.5645 35.3277 34.2223C34.8882 34.8801 34.2635 35.3928 33.5326 35.6955C32.8017 35.9983 31.9974 36.0775 31.2215 35.9231C30.4456 35.7688 29.7328 35.3878 29.1734 34.8284C28.614 34.269 28.2331 33.5563 28.0787 32.7804C27.9244 32.0044 28.0036 31.2002 28.3063 30.4693C28.6091 29.7384 29.1218 29.1136 29.7796 28.6741C30.4374 28.2346 31.2107 28 32.0019 28C33.0627 28 34.0801 28.4214 34.8303 29.1716C35.5804 29.9217 36.0019 30.9391 36.0019 32Z" fill="#650B14"/>
</g>
<defs>
<clipPath id="clip0_199_356">
<rect width="32" height="32" fill="white" transform="translate(16 16)"/>
</clipPath>
</defs>
</svg>
