<svg width="40" height="40" viewBox="0 0 40 40" fill="none" xmlns="http://www.w3.org/2000/svg">
<rect width="40" height="40" rx="16" fill="#FFC258"/>
<g clip-path="url(#clip0_199_687)">
<path d="M20 15C19.337 15 18.7011 15.2634 18.2322 15.7322C17.7634 16.2011 17.5 16.837 17.5 17.5V27.5C17.5 28.163 17.7634 28.7989 18.2322 29.2678C18.7011 29.7366 19.337 30 20 30C20.663 30 21.2989 29.7366 21.7678 29.2678C22.2366 28.7989 22.5 28.163 22.5 27.5V17.5C22.5 16.837 22.2366 16.2011 21.7678 15.7322C21.2989 15.2634 20.663 15 20 15Z" fill="#650B14"/>
<path d="M27.5 10C26.837 10 26.2011 10.2634 25.7322 10.7322C25.2634 11.2011 25 11.837 25 12.5V27.5C25 28.163 25.2634 28.7989 25.7322 29.2678C26.2011 29.7366 26.837 30 27.5 30C28.163 30 28.7989 29.7366 29.2678 29.2678C29.7366 28.7989 30 28.163 30 27.5V12.5C30 11.837 29.7366 11.2011 29.2678 10.7322C28.7989 10.2634 28.163 10 27.5 10Z" fill="#650B14"/>
<path d="M12.5 20C11.837 20 11.2011 20.2634 10.7322 20.7322C10.2634 21.2011 10 21.837 10 22.5V27.5C10 28.163 10.2634 28.7989 10.7322 29.2678C11.2011 29.7366 11.837 30 12.5 30C13.163 30 13.7989 29.7366 14.2678 29.2678C14.7366 28.7989 15 28.163 15 27.5V22.5C15 21.837 14.7366 21.2011 14.2678 20.7322C13.7989 20.2634 13.163 20 12.5 20Z" fill="#650B14"/>
</g>
<defs>
<clipPath id="clip0_199_687">
<rect width="20" height="20" fill="white" transform="translate(10 10)"/>
</clipPath>
</defs>
</svg>
