<svg width="40" height="40" viewBox="0 0 40 40" fill="none" xmlns="http://www.w3.org/2000/svg">
<rect width="40" height="40" rx="16" fill="#FFC258"/>
<g clip-path="url(#clip0_199_673)">
<path d="M10.332 16.6667V15.8333C10.332 13.5358 12.2012 11.6667 14.4987 11.6667H15.332V10.8333C15.332 10.3733 15.7045 10 16.1654 10C16.6262 10 16.9987 10.3733 16.9987 10.8333V11.6667H23.6654V10.8333C23.6654 10.3733 24.0379 10 24.4987 10C24.9595 10 25.332 10.3733 25.332 10.8333V11.6667H26.1654C28.4629 11.6667 30.332 13.5358 30.332 15.8333V16.6667H10.332ZM30.332 18.3333V25.8333C30.332 28.1308 28.4629 30 26.1654 30H14.4987C12.2012 30 10.332 28.1308 10.332 25.8333V18.3333H30.332ZM25.192 20.96C24.872 20.6292 24.3454 20.6192 24.0137 20.9383L20.052 24.7567C19.7387 25.07 19.2129 25.0933 18.8529 24.735L16.9545 22.9708C16.6187 22.6583 16.092 22.6758 15.777 23.0142C15.4637 23.3508 15.4829 23.8783 15.8204 24.1917L17.697 25.935C18.1687 26.4075 18.797 26.6675 19.4645 26.6675C20.132 26.6675 20.7612 26.4075 21.2212 25.9458L25.1712 22.1392C25.502 21.82 25.512 21.2908 25.192 20.96Z" fill="#650B14"/>
</g>
<defs>
<clipPath id="clip0_199_673">
<rect width="20" height="20" fill="white" transform="translate(10.332 10)"/>
</clipPath>
</defs>
</svg>
