<svg width="64" height="64" viewBox="0 0 64 64" fill="none" xmlns="http://www.w3.org/2000/svg">
<rect width="64" height="64" rx="24" fill="#FFC258"/>
<g clip-path="url(#clip0_199_366)">
<path d="M32.6382 35.02V30.648H47.3702C47.5142 31.4093 47.5888 32.3107 47.5888 33.2867C47.5888 36.5667 46.6928 40.6227 43.8022 43.512C40.9915 46.4387 37.4008 48 32.6435 48C23.8248 48 16.4102 40.8173 16.4102 32C16.4102 23.1827 23.8248 16 32.6435 16C37.5222 16 40.9968 17.9147 43.6075 20.4093L40.5222 23.4933C38.6502 21.7373 36.1128 20.372 32.6382 20.372C26.1995 20.372 21.1635 25.5613 21.1635 32C21.1635 38.4387 26.1995 43.628 32.6382 43.628C36.8142 43.628 39.1928 41.9507 40.7168 40.4267C41.9528 39.1907 42.7662 37.4253 43.0862 35.0147L32.6382 35.02Z" fill="#650B14"/>
</g>
<defs>
<clipPath id="clip0_199_366">
<rect width="32" height="32" fill="white" transform="translate(16 16)"/>
</clipPath>
</defs>
</svg>
