<svg width="40" height="40" viewBox="0 0 40 40" fill="none" xmlns="http://www.w3.org/2000/svg">
<rect width="40" height="40" rx="16" fill="#FFC258"/>
<path d="M23.3307 24.1667C23.3307 24.3877 23.2429 24.5996 23.0867 24.7559C22.9304 24.9122 22.7184 25 22.4974 25H17.4974C17.2764 25 17.0644 24.9122 16.9081 24.7559C16.7519 24.5996 16.6641 24.3877 16.6641 24.1667C16.6641 23.9457 16.7519 23.7337 16.9081 23.5774C17.0644 23.4211 17.2764 23.3333 17.4974 23.3333H22.4974C22.7184 23.3333 22.9304 23.4211 23.0867 23.5774C23.2429 23.7337 23.3307 23.9457 23.3307 24.1667ZM28.3307 24.1667V25C28.3294 26.3257 27.8022 27.5967 26.8648 28.5341C25.9274 29.4715 24.6564 29.9987 23.3307 30H16.6641C15.3384 29.9987 14.0674 29.4715 13.13 28.5341C12.1926 27.5967 11.6654 26.3257 11.6641 25V24.1667C11.6626 22.7838 12.0459 21.4279 12.7712 20.2505C13.4965 19.0731 14.535 18.1207 15.7707 17.5H24.2241C25.4598 18.1207 26.4983 19.0731 27.2236 20.2505C27.9489 21.4279 28.3322 22.7838 28.3307 24.1667ZM24.9974 24.1667C24.9974 23.5036 24.734 22.8677 24.2652 22.3989C23.7963 21.9301 23.1604 21.6667 22.4974 21.6667H17.4974C16.8344 21.6667 16.1985 21.9301 15.7296 22.3989C15.2608 22.8677 14.9974 23.5036 14.9974 24.1667C14.9974 24.8297 15.2608 25.4656 15.7296 25.9344C16.1985 26.4033 16.8344 26.6667 17.4974 26.6667H22.4974C23.1604 26.6667 23.7963 26.4033 24.2652 25.9344C24.734 25.4656 24.9974 24.8297 24.9974 24.1667ZM24.1641 15C24.1641 14.558 23.9885 14.134 23.6759 13.8215C23.3634 13.5089 22.9394 13.3333 22.4974 13.3333V11.6667H25.8307C26.0517 11.6667 26.2637 11.5789 26.42 11.4226C26.5763 11.2663 26.6641 11.0543 26.6641 10.8333C26.6641 10.6123 26.5763 10.4004 26.42 10.2441C26.2637 10.0878 26.0517 10 25.8307 10H19.9974C19.3344 10 18.6985 10.2634 18.2296 10.7322C17.7608 11.2011 17.4974 11.837 17.4974 12.5V13.3333C17.0554 13.3333 16.6314 13.5089 16.3189 13.8215C16.0063 14.134 15.8307 14.558 15.8307 15V15.8333H24.1641V15Z" fill="#650B14"/>
</svg>
