<svg width="48" height="48" viewBox="0 0 48 48" fill="none" xmlns="http://www.w3.org/2000/svg">
<g clip-path="url(#clip0_199_499)">
<path d="M22.4825 48.0001C21.8273 47.9977 21.1804 47.8531 20.5865 47.5761C19.6166 47.1442 18.8375 46.3731 18.3957 45.4076C17.9538 44.4421 17.8794 43.3485 18.1865 42.3321L21.3085 32.0001H13.9525C13.0154 32.0012 12.0909 31.7828 11.2534 31.3623C10.4158 30.9418 9.68836 30.331 9.12938 29.5788C8.5704 28.8265 8.1954 27.9538 8.03445 27.0305C7.87351 26.1073 7.93107 25.1591 8.20255 24.2621L14.2505 4.2621C14.6192 3.02506 15.3791 1.94095 16.4163 1.17248C17.4534 0.404011 18.7118 -0.00736326 20.0026 9.97787e-05H27.3885C28.2281 0.000802064 29.0549 0.204752 29.7985 0.594519C30.542 0.984287 31.1801 1.54828 31.6583 2.23831C32.1364 2.92833 32.4404 3.72387 32.5443 4.55693C32.6481 5.38999 32.5487 6.23581 32.2546 7.0221L28.8885 16.0001H34.0026C35.0927 16 36.1622 16.2969 37.0963 16.8589C38.0303 17.4209 38.7937 18.2268 39.3042 19.1899C39.8148 20.1531 40.0533 21.2371 39.9942 22.3256C39.935 23.4141 39.5805 24.4659 38.9686 25.3681L26.1686 45.9681C25.7729 46.5878 25.2282 47.0985 24.5843 47.4534C23.9404 47.8084 23.2178 47.9963 22.4825 48.0001Z" fill="#650B14"/>
</g>
<defs>
<clipPath id="clip0_199_499">
<rect width="48" height="48" fill="white"/>
</clipPath>
</defs>
</svg>
