<svg width="64" height="64" viewBox="0 0 64 64" fill="none" xmlns="http://www.w3.org/2000/svg">
<rect width="64" height="64" rx="24" fill="#FFC258"/>
<g clip-path="url(#clip0_199_326)">
<path d="M30.9745 20.8655L43.1411 33.0322L39.7531 42.4588L17.8931 48.0002L28.6491 37.2442C28.8678 37.3028 29.0971 37.3335 29.3345 37.3335C30.8078 37.3335 32.0011 36.1402 32.0011 34.6668C32.0011 33.1935 30.8078 32.0002 29.3345 32.0002C27.8611 32.0002 26.6678 33.1935 26.6678 34.6668C26.6678 34.9068 26.6998 35.1402 26.7598 35.3615L16.0078 46.1148L21.5331 24.2548L30.9758 20.8655H30.9745ZM37.3345 16.0068L33.6105 19.7308L44.2771 30.3975L48.0011 26.6735L37.3345 16.0068Z" fill="#650B14"/>
</g>
<defs>
<clipPath id="clip0_199_326">
<rect width="32" height="32" fill="white" transform="translate(16 16)"/>
</clipPath>
</defs>
</svg>
