<svg width="80" height="80" viewBox="0 0 80 80" fill="none" xmlns="http://www.w3.org/2000/svg">
<rect width="80" height="80" rx="24" fill="#FFC258"/>
<g clip-path="url(#clip0_199_224)">
<path d="M55.879 33.8065L43.2306 21.4649C42.1323 20.3649 40.5523 19.8265 39.0173 20.0465L27.5373 21.6165C26.6256 21.7415 25.9873 22.5815 26.1123 23.4932C26.2373 24.4049 27.0756 25.0415 27.9906 24.9182L39.4723 23.3482C39.9823 23.2782 40.509 23.4532 40.8906 23.8349L53.5406 36.1765C55.2823 37.9182 55.4523 40.6432 54.079 42.5882C53.689 41.8099 53.2073 41.0682 52.5606 40.4215L40.1023 28.0682C39.0056 26.9715 37.4406 26.4432 35.889 26.6499L24.4073 28.2199C23.6506 28.3232 23.0606 28.9282 22.9773 29.6882L21.7023 41.2149C21.5356 42.7332 22.059 44.2215 23.1423 45.3032L35.5023 57.5582C37.0756 59.1332 39.1673 59.9982 41.3923 59.9982H41.4206C43.6573 59.9915 45.754 59.1115 47.3256 57.5199L52.604 52.1732C54.149 50.6082 54.9256 48.5749 54.9756 46.5265L55.9373 45.5665C59.1456 42.3165 59.1273 37.0465 55.884 33.8049L55.879 33.8065ZM30.0023 36.6665C29.0823 36.6665 28.3356 35.9199 28.3356 34.9999C28.3456 32.8199 31.659 32.8215 31.669 34.9999C31.669 35.9199 30.9223 36.6665 30.0023 36.6665Z" fill="#650B14"/>
</g>
<defs>
<clipPath id="clip0_199_224">
<rect width="40" height="40" fill="white" transform="translate(20 20)"/>
</clipPath>
</defs>
</svg>
