<svg width="80" height="80" viewBox="0 0 80 80" fill="none" xmlns="http://www.w3.org/2000/svg">
<rect width="80" height="80" rx="24" fill="#FFC258"/>
<g clip-path="url(#clip0_199_280)">
<path d="M60 36.6663C60 38.5079 58.5083 39.9996 56.6667 39.9996H23.3333C21.4917 39.9996 20 38.5079 20 36.6663C20 35.5979 20.8333 34.9996 21.6667 34.9996H24.0517L24.6267 28.3863C24.94 24.7729 27.5333 21.7963 31.0783 20.9796C36.73 19.6813 43.27 19.6813 48.9217 20.9796C52.4667 21.7963 55.0617 24.7729 55.3733 28.3879L55.9483 34.9996H58.3333C59.1667 34.9996 60 35.8546 60 36.6663ZM23.3333 43.3329H56.6667V55.8329C56.6667 58.1313 54.7983 59.9996 52.5 59.9996C50.4867 59.9996 48.805 58.5663 48.4183 56.6663H31.5817C31.195 58.5663 29.5117 59.9996 27.5 59.9996C25.2017 59.9996 23.3333 58.1313 23.3333 55.8329V43.3329ZM48.3333 49.9996C48.3333 51.3796 49.4533 52.4996 50.8333 52.4996C52.2133 52.4996 53.3333 51.3796 53.3333 49.9996C53.3333 48.6196 52.2133 47.4996 50.8333 47.4996C49.4533 47.4996 48.3333 48.6196 48.3333 49.9996ZM26.6667 49.9996C26.6667 51.3796 27.7867 52.4996 29.1667 52.4996C30.5467 52.4996 31.6667 51.3796 31.6667 49.9996C31.6667 48.6196 30.5467 47.4996 29.1667 47.4996C27.7867 47.4996 26.6667 48.6196 26.6667 49.9996Z" fill="#650B14"/>
</g>
<defs>
<clipPath id="clip0_199_280">
<rect width="40" height="40" fill="white" transform="translate(20 20)"/>
</clipPath>
</defs>
</svg>
