<svg width="80" height="80" viewBox="0 0 80 80" fill="none" xmlns="http://www.w3.org/2000/svg">
<rect width="80" height="80" rx="24" fill="#FFC258"/>
<g clip-path="url(#clip0_199_256)">
<path d="M38.5358 40.8933C38.0715 40.4287 37.5202 40.0601 36.9133 39.8086C36.3065 39.5572 35.656 39.4277 34.9992 39.4277C34.3423 39.4277 33.6918 39.5572 33.085 39.8086C32.4782 40.0601 31.9268 40.4287 31.4625 40.8933L20.0625 52.2933C20.2166 54.3835 21.154 56.3384 22.6873 57.7673C24.2206 59.1961 26.2367 59.9935 28.3325 60H51.6658C53.2987 59.9997 54.895 59.5167 56.2542 58.6117L38.5358 40.8933Z" fill="#650B14"/>
<path d="M49.9974 33.3337C51.8383 33.3337 53.3307 31.8413 53.3307 30.0003C53.3307 28.1594 51.8383 26.667 49.9974 26.667C48.1564 26.667 46.6641 28.1594 46.6641 30.0003C46.6641 31.8413 48.1564 33.3337 49.9974 33.3337Z" fill="#650B14"/>
<path d="M51.6667 20H28.3333C26.124 20.0026 24.0059 20.8815 22.4437 22.4437C20.8815 24.0059 20.0026 26.124 20 28.3333L20 47.6433L29.1067 38.5367C29.8805 37.7626 30.7993 37.1486 31.8105 36.7297C32.8217 36.3107 33.9055 36.0951 35 36.0951C36.0945 36.0951 37.1783 36.3107 38.1895 36.7297C39.2007 37.1486 40.1195 37.7626 40.8933 38.5367L58.6117 56.255C59.5167 54.8959 59.9997 53.2995 60 51.6667V28.3333C59.9974 26.124 59.1185 24.0059 57.5563 22.4437C55.9941 20.8815 53.876 20.0026 51.6667 20ZM50 36.6667C48.6815 36.6667 47.3925 36.2757 46.2962 35.5431C45.1999 34.8106 44.3454 33.7694 43.8408 32.5512C43.3362 31.333 43.2042 29.9926 43.4614 28.6994C43.7187 27.4062 44.3536 26.2183 45.286 25.286C46.2183 24.3536 47.4062 23.7187 48.6994 23.4614C49.9926 23.2042 51.333 23.3362 52.5512 23.8408C53.7694 24.3454 54.8106 25.1999 55.5431 26.2962C56.2757 27.3925 56.6667 28.6815 56.6667 30C56.6667 31.7681 55.9643 33.4638 54.714 34.714C53.4638 35.9643 51.7681 36.6667 50 36.6667Z" fill="#650B14"/>
</g>
<defs>
<clipPath id="clip0_199_256">
<rect width="40" height="40" fill="white" transform="translate(20 20)"/>
</clipPath>
</defs>
</svg>
