<svg width="1146" height="116" viewBox="0 0 1146 116" fill="none" xmlns="http://www.w3.org/2000/svg">
<path d="M317.217 198.888H258.139V0H317.217V198.888Z" fill="white"/>
<path d="M660.701 55.4026L697.768 0H763.055L695.768 99.4409L763.055 198.888H697.768L660.701 143.486L623.635 198.888H558.059L625.347 99.4409L558.059 0H623.635L660.701 55.4026Z" fill="white"/>
<path fill-rule="evenodd" clip-rule="evenodd" d="M163.116 0C261.746 0.286426 263.456 145.367 163.116 143.95H59.2942V198.744H0V0H163.116ZM59.2942 93.9811H163.116C183.353 93.9773 183.638 49.9721 162.546 49.9689H59.2942V93.9811Z" fill="white"/>
<path d="M537.648 58.7962H506.234C484.578 58.7965 467.017 76.2763 467.017 97.8389V128.826H435.884C414.23 128.827 396.681 146.313 396.681 167.875V198.744H337.635V139.955H368.755C390.409 139.954 407.971 122.467 407.972 100.906V70.0428H439.386C461.042 70.0428 478.602 52.5562 478.603 30.9935V0H537.648V58.7962Z" fill="white"/>
<path d="M537.661 198.744H478.609V142.217C478.61 141.614 478.856 141.035 479.285 140.609C479.713 140.183 480.292 139.942 480.898 139.942H537.661V198.744Z" fill="white"/>
<path d="M940.21 49.9689H842.748V74.3911H907.681V124.36H843.194V148.776H943.632V198.744H783.847V0H940.21V49.9689Z" fill="white"/>
<path d="M1086.51 99.3755V0H1145.85V198.744H1086.51L1020.32 99.3755V198.744H960.982V0H1020.32L1086.51 99.3755Z" fill="white"/>
<path d="M396.674 56.5207C396.672 57.1226 396.433 57.7036 396.005 58.1292C395.578 58.5541 394.996 58.7945 394.392 58.7962H337.629V0H396.674V56.5207Z" fill="white"/>
</svg>
