<svg width="64" height="64" viewBox="0 0 64 64" fill="none" xmlns="http://www.w3.org/2000/svg">
<rect width="64" height="64" rx="24" fill="#FFC258"/>
<g clip-path="url(#clip0_199_346)">
<path d="M48 46.1147L44.2773 42.392C44.976 41.3373 45.388 40.0773 45.388 38.7213C45.388 35.0453 42.3973 32.0547 38.7213 32.0547C35.0453 32.0547 32.0547 35.0453 32.0547 38.7213C32.0547 42.3973 35.0453 45.388 38.7213 45.388C40.0773 45.388 41.3373 44.976 42.392 44.2773L46.1147 48L48 46.1147ZM44 16H20C17.7947 16 16 17.7947 16 20V25.3333H48V20C48 17.7947 46.2053 16 44 16ZM20.6667 22.6667C19.5627 22.6667 18.6667 21.7707 18.6667 20.6667C18.6667 19.5627 19.5627 18.6667 20.6667 18.6667C21.7707 18.6667 22.6667 19.5627 22.6667 20.6667C22.6667 21.7707 21.7707 22.6667 20.6667 22.6667ZM26 22.6667C24.896 22.6667 24 21.7707 24 20.6667C24 19.5627 24.896 18.6667 26 18.6667C27.104 18.6667 28 19.5627 28 20.6667C28 21.7707 27.104 22.6667 26 22.6667ZM16 28H48V38.6667C48 33.512 43.8213 29.3333 38.6667 29.3333C33.512 29.3333 29.3333 33.512 29.3333 38.6667C29.3333 41.28 30.4107 43.6387 32.1413 45.3333H16V28Z" fill="#650B14"/>
</g>
<defs>
<clipPath id="clip0_199_346">
<rect width="32" height="32" fill="white" transform="translate(16 16)"/>
</clipPath>
</defs>
</svg>
