<svg width="40" height="40" viewBox="0 0 40 40" fill="none" xmlns="http://www.w3.org/2000/svg">
<rect width="40" height="40" rx="16" fill="#FFC258"/>
<g clip-path="url(#clip0_199_725)">
<path d="M28.0013 14.1671H27.683C27.4255 14.1671 27.1946 14.0246 27.0796 13.7946C26.6805 12.9963 25.878 12.5004 24.9863 12.5004H23.8346V10.6421C23.8346 10.2046 23.3996 9.88876 22.9888 10.0371C22.0246 10.3838 21.3346 11.3063 21.3346 12.3904V13.7504L20.5313 16.1163C20.4121 16.4454 20.0971 16.6663 19.748 16.6671L15.4996 16.6696C14.5905 16.6696 13.7496 16.9638 13.0638 17.4596C12.5638 17.2288 11.3346 16.5088 11.3346 15.0004C11.3346 14.5404 10.9613 14.1671 10.5013 14.1671C10.0413 14.1671 9.66797 14.5404 9.66797 15.0004C9.66797 17.0604 10.998 18.1954 11.908 18.7304C11.5438 19.3488 11.3355 20.0688 11.3355 20.8371L11.3371 27.9229C11.3371 29.0704 12.2721 30.0046 13.4196 30.0046C14.5671 30.0046 15.5021 29.0704 15.5021 27.9221V25.0004L20.5021 24.9979V27.9179C20.5021 29.0663 21.4371 30.0013 22.5855 30.0013C23.7338 30.0013 24.6688 29.0663 24.6688 27.9179V25.1971C24.6688 24.8638 24.703 24.5296 24.7688 24.2029L26.4855 19.0796C28.2546 19.0013 29.6688 17.5371 29.6688 15.7496C29.6688 14.9829 29.0846 14.1679 28.0021 14.1679L28.0013 14.1671Z" fill="#650B14"/>
</g>
<defs>
<clipPath id="clip0_199_725">
<rect width="20" height="20" fill="white" transform="translate(9.66797 10)"/>
</clipPath>
</defs>
</svg>
