<svg width="64" height="64" viewBox="0 0 64 64" fill="none" xmlns="http://www.w3.org/2000/svg">
<rect width="64" height="64" rx="24" fill="#FFC258"/>
<g clip-path="url(#clip0_199_336)">
<path d="M32.1661 44.9067C32.0968 44.8507 32.0394 44.8134 31.9661 44.752C31.0621 43.7947 29.6301 42.116 28.3821 39.9707H30.4768L29.5648 37.304H27.0674C26.4101 35.6587 25.9674 33.8547 25.9674 31.9707C25.9674 30.0867 26.4128 28.284 27.0728 26.6374H36.8514C37.2434 27.6187 37.5714 28.648 37.7621 29.7267L40.5661 30.6867C40.4447 29.2707 40.1274 27.916 39.6954 26.6387H44.1794C44.8341 28.1307 45.2127 29.7654 45.2754 31.4814C45.2821 31.6454 45.2861 32.1907 45.2834 32.3014L47.9048 33.1987C47.9354 32.792 47.9674 32.3867 47.9674 31.9734C47.9688 23.148 40.7901 15.9707 31.9688 15.9707C23.1474 15.9707 15.9688 23.148 15.9688 31.9707C15.9688 40.7934 23.1461 47.9707 31.9688 47.9707C32.3821 47.9707 32.7901 47.9494 33.1968 47.9187L32.1661 44.9067ZM28.3821 23.9707C29.6261 21.8334 31.0661 20.1467 31.9688 19.1894C32.8701 20.144 34.3021 21.836 35.5434 23.9707H28.3821ZM42.6087 23.9707H38.5834C37.6194 22.036 36.4621 20.3854 35.4368 19.1107C38.3394 19.8947 40.8461 21.632 42.6087 23.9707ZM28.4848 19.1147C27.4608 20.3854 26.3101 22.0454 25.3474 23.9707H21.3247C23.0847 21.636 25.5888 19.9 28.4848 19.1147ZM19.7554 26.6374H24.2354C23.6727 28.2974 23.3021 30.0867 23.3021 31.9707C23.3021 33.8547 23.6727 35.644 24.2354 37.304H19.7554C19.0381 35.6694 18.6341 33.8667 18.6341 31.9707C18.6341 30.0747 19.0381 28.272 19.7554 26.6374ZM21.3261 39.9707H25.3488C26.3194 41.9134 27.4808 43.556 28.5101 44.8334C25.6021 44.0507 23.0914 42.312 21.3261 39.9707ZM48.0274 36.0574L39.8834 39.8894L36.0514 48.0307L29.8248 29.8294L48.0274 36.0574Z" fill="#650B14"/>
</g>
<defs>
<clipPath id="clip0_199_336">
<rect width="32" height="32" fill="white" transform="translate(16 16)"/>
</clipPath>
</defs>
</svg>
