<svg width="64" height="64" viewBox="0 0 64 64" fill="none" xmlns="http://www.w3.org/2000/svg">
<rect width="64" height="64" rx="24" fill="#FFC258"/>
<path d="M43.9996 44.6665V47.9999H19.9996V44.6665C19.9996 41.3585 22.6916 38.6665 25.9996 38.6665H37.9996C41.3076 38.6665 43.9996 41.3585 43.9996 44.6665ZM25.1622 21.3692C27.2009 19.4585 29.8702 18.5145 32.6689 18.6879C37.9009 19.0265 42.0009 23.5799 42.0009 29.0532C42.0009 31.4132 40.0822 33.3319 37.7222 33.3319H34.5142C34.1889 32.2265 33.1782 31.4132 31.9676 31.4132C30.4942 31.4132 29.3009 32.6065 29.3009 34.0799C29.3009 35.5532 30.4942 36.7465 31.9676 36.7465C32.6849 36.7465 33.3342 36.4599 33.8129 35.9985H37.7222C41.5516 35.9985 44.6676 32.8825 44.6676 29.0532C44.6662 22.1785 39.4716 16.4559 32.8396 16.0279C29.2876 15.7972 25.9182 17.0039 23.3382 19.4252C20.9556 21.6585 19.5236 24.7532 19.3516 28.0012H22.0222C22.1862 25.4639 23.2862 23.1279 25.1622 21.3692ZM36.1329 30.6665H37.9569C38.6249 30.6665 39.2089 30.1759 39.2862 29.5119C39.3769 28.7292 39.3436 27.9092 39.1649 27.0705C38.5729 24.2985 36.3236 22.0625 33.5476 21.4919C28.8316 20.5225 24.6689 24.1185 24.6689 28.6665C24.6689 30.6252 25.4409 32.4065 26.6956 33.7225C26.8422 30.9079 29.1502 28.6652 32.0009 28.6652C33.6782 28.6652 35.1556 29.4545 36.1329 30.6652V30.6665Z" fill="#650B14"/>
</svg>
