<svg width="80" height="80" viewBox="0 0 80 80" fill="none" xmlns="http://www.w3.org/2000/svg">
<rect width="80" height="80" rx="24" fill="#FFC258"/>
<g clip-path="url(#clip0_199_231)">
<path d="M20 51.667C20.0026 53.8763 20.8815 55.9944 22.4437 57.5566C24.0059 59.1189 26.124 59.9977 28.3333 60.0003H51.6667C53.876 59.9977 55.9941 59.1189 57.5563 57.5566C59.1185 55.9944 59.9974 53.8763 60 51.667V36.667H20V51.667ZM48.3333 44.167C48.8278 44.167 49.3111 44.3136 49.7223 44.5883C50.1334 44.863 50.4538 45.2535 50.643 45.7103C50.8322 46.1671 50.8818 46.6698 50.7853 47.1547C50.6888 47.6397 50.4507 48.0851 50.1011 48.4348C49.7515 48.7844 49.306 49.0225 48.8211 49.119C48.3361 49.2154 47.8334 49.1659 47.3766 48.9767C46.9198 48.7875 46.5294 48.467 46.2547 48.0559C45.98 47.6448 45.8333 47.1614 45.8333 46.667C45.8333 46.004 46.0967 45.3681 46.5656 44.8992C47.0344 44.4304 47.6703 44.167 48.3333 44.167ZM40 44.167C40.4945 44.167 40.9778 44.3136 41.3889 44.5883C41.8 44.863 42.1205 45.2535 42.3097 45.7103C42.4989 46.1671 42.5484 46.6698 42.452 47.1547C42.3555 47.6397 42.1174 48.0851 41.7678 48.4348C41.4181 48.7844 40.9727 49.0225 40.4877 49.119C40.0028 49.2154 39.5001 49.1659 39.0433 48.9767C38.5865 48.7875 38.196 48.467 37.9213 48.0559C37.6466 47.6448 37.5 47.1614 37.5 46.667C37.5 46.004 37.7634 45.3681 38.2322 44.8992C38.7011 44.4304 39.337 44.167 40 44.167ZM31.6667 44.167C32.1611 44.167 32.6445 44.3136 33.0556 44.5883C33.4667 44.863 33.7871 45.2535 33.9764 45.7103C34.1656 46.1671 34.2151 46.6698 34.1186 47.1547C34.0222 47.6397 33.7841 48.0851 33.4344 48.4348C33.0848 48.7844 32.6393 49.0225 32.1544 49.119C31.6694 49.2154 31.1668 49.1659 30.71 48.9767C30.2531 48.7875 29.8627 48.467 29.588 48.0559C29.3133 47.6448 29.1667 47.1614 29.1667 46.667C29.1667 46.004 29.4301 45.3681 29.8989 44.8992C30.3677 44.4304 31.0036 44.167 31.6667 44.167Z" fill="#650B14"/>
<path d="M51.6667 23.3333H50V21.6667C50 21.2246 49.8244 20.8007 49.5118 20.4882C49.1993 20.1756 48.7754 20 48.3333 20C47.8913 20 47.4674 20.1756 47.1548 20.4882C46.8423 20.8007 46.6667 21.2246 46.6667 21.6667V23.3333H33.3333V21.6667C33.3333 21.2246 33.1577 20.8007 32.8452 20.4882C32.5326 20.1756 32.1087 20 31.6667 20C31.2246 20 30.8007 20.1756 30.4882 20.4882C30.1756 20.8007 30 21.2246 30 21.6667V23.3333H28.3333C26.124 23.336 24.0059 24.2148 22.4437 25.777C20.8815 27.3393 20.0026 29.4573 20 31.6667L20 33.3333H60V31.6667C59.9974 29.4573 59.1185 27.3393 57.5563 25.777C55.9941 24.2148 53.876 23.336 51.6667 23.3333Z" fill="#650B14"/>
</g>
<defs>
<clipPath id="clip0_199_231">
<rect width="40" height="40" fill="white" transform="translate(20 20)"/>
</clipPath>
</defs>
</svg>
