<svg width="48" height="48" viewBox="0 0 48 48" fill="none" xmlns="http://www.w3.org/2000/svg">
<path d="M44.0267 18.3753C44.0159 19.0103 43.8038 19.6254 43.4211 20.1322C43.0383 20.639 42.5046 21.0112 41.8967 21.1953L28.3067 25.2753C27.5986 25.4901 26.9543 25.8762 26.431 26.3995C25.9077 26.9228 25.5216 27.5671 25.3067 28.2753L21.2267 41.8653C21.0427 42.4731 20.6704 43.0068 20.1637 43.3896C19.6569 43.7724 19.0417 43.9844 18.4067 43.9953C17.7706 44.016 17.1444 43.8339 16.6186 43.4753C16.0927 43.1167 15.6946 42.6001 15.4817 42.0003L4.12674 7.92028C3.95046 7.39169 3.92488 6.82445 4.05286 6.28214C4.18084 5.73983 4.45733 5.24388 4.85134 4.84987C5.24534 4.45587 5.74129 4.17938 6.2836 4.0514C6.82591 3.92341 7.39315 3.949 7.92174 4.12528L42.0017 15.4803C42.6022 15.6865 43.1217 16.0779 43.4856 16.5981C43.8495 17.1183 44.0389 17.7405 44.0267 18.3753Z" fill="#FFC258"/>
</svg>
