<svg width="64" height="64" viewBox="0 0 64 64" fill="none" xmlns="http://www.w3.org/2000/svg">
<rect width="64" height="64" rx="24" fill="#FFC258"/>
<path d="M32.144 42.15L31.55 39.432C30.29 39.396 29.162 39.264 28.166 39.036C27.17 38.808 26.318 38.442 25.61 37.938C24.914 37.434 24.38 36.762 24.008 35.922C23.636 35.07 23.45 34.014 23.45 32.754C23.45 31.518 23.66 30.474 24.08 29.622C24.5 28.77 25.094 28.086 25.862 27.57C26.63 27.054 27.542 26.682 28.598 26.454C29.654 26.214 30.818 26.094 32.09 26.094C33.362 26.094 34.526 26.214 35.582 26.454C36.65 26.682 37.574 27.066 38.354 27.606C39.134 28.134 39.74 28.836 40.172 29.712C40.604 30.576 40.82 31.65 40.82 32.934C40.82 34.782 40.322 36.204 39.326 37.2C38.342 38.196 36.938 38.856 35.114 39.18L37.058 42.15H32.144ZM32.09 36.696C32.894 36.696 33.506 36.54 33.926 36.228C34.346 35.916 34.634 35.472 34.79 34.896C34.946 34.32 35.024 33.63 35.024 32.826C35.024 32.07 34.94 31.392 34.772 30.792C34.604 30.18 34.31 29.694 33.89 29.334C33.482 28.974 32.9 28.794 32.144 28.794C31.376 28.794 30.776 28.968 30.344 29.316C29.924 29.664 29.63 30.15 29.462 30.774C29.306 31.386 29.228 32.112 29.228 32.952C29.228 33.66 29.3 34.296 29.444 34.86C29.588 35.424 29.864 35.874 30.272 36.21C30.68 36.534 31.286 36.696 32.09 36.696Z" fill="#650B14"/>
</svg>
