<svg width="80" height="80" viewBox="0 0 80 80" fill="none" xmlns="http://www.w3.org/2000/svg">
<rect width="80" height="80" rx="24" fill="#FFC258"/>
<g clip-path="url(#clip0_199_273)">
<path d="M40 40.1783C40 38.5183 38.865 36.9783 37.2267 36.7117C35.1383 36.3717 33.3333 37.975 33.3333 40V54.695C31.54 53.2183 29.815 51.775 29.7583 51.7217C28.2217 50.2867 25.8033 50.3667 24.3667 51.9033C22.9283 53.4417 23.0017 55.8567 24.53 57.2867L27.565 60H55.0017V59.0117C55.0017 55.5867 52.905 52.51 49.7167 51.2567L40.0017 47.4367V40.1783H40ZM60 27.5V30.8333C60 34.9683 56.635 38.3333 52.5 38.3333H43.0833C42.3917 35.8233 40.3317 33.84 37.7617 33.4217C35.815 33.11 33.84 33.6517 32.3483 34.92C31.29 35.8217 30.5517 37.015 30.2117 38.3317H27.5C23.365 38.3317 20 34.9667 20 30.8317V27.4983C20 23.365 23.365 20 27.5 20H52.5C56.635 20 60 23.365 60 27.5Z" fill="#650B14"/>
</g>
<defs>
<clipPath id="clip0_199_273">
<rect width="40" height="40" fill="white" transform="translate(20 20)"/>
</clipPath>
</defs>
</svg>
