<svg width="80" height="80" viewBox="0 0 80 80" fill="none" xmlns="http://www.w3.org/2000/svg">
<rect width="80" height="80" rx="24" fill="#FFC258"/>
<g clip-path="url(#clip0_199_287)">
<path d="M56.6667 28.3332H56.03C55.515 28.3332 55.0533 28.0482 54.8233 27.5882C54.025 25.9915 52.42 24.9999 50.6367 24.9999H48.3333V21.2832C48.3333 20.4082 47.4633 19.7765 46.6417 20.0732C44.7133 20.7665 43.3333 22.6115 43.3333 24.7799V27.4999L41.7267 32.2315C41.4883 32.8899 40.8583 33.3315 40.16 33.3332L31.6633 33.3382C29.845 33.3382 28.1633 33.9265 26.7917 34.9182C25.7917 34.4565 23.3333 33.0165 23.3333 29.9999C23.3333 29.0799 22.5867 28.3332 21.6667 28.3332C20.7467 28.3332 20 29.0799 20 29.9999C20 34.1199 22.66 36.3899 24.48 37.4599C23.7517 38.6965 23.335 40.1365 23.335 41.6732L23.3383 55.8449C23.3383 58.1399 25.2083 60.0082 27.5033 60.0082C29.7983 60.0082 31.6683 58.1399 31.6683 55.8432V49.9999L41.6683 49.9949V55.8349C41.6683 58.1315 43.5383 60.0015 45.835 60.0015C48.1317 60.0015 50.0017 58.1315 50.0017 55.8349V50.3932C50.0017 49.7265 50.07 49.0582 50.2017 48.4049L53.635 38.1582C57.1733 38.0015 60.0017 35.0732 60.0017 31.4982C60.0017 29.9649 58.8333 28.3349 56.6683 28.3349L56.6667 28.3332Z" fill="#650B14"/>
</g>
<defs>
<clipPath id="clip0_199_287">
<rect width="40" height="40" fill="white" transform="translate(20 20)"/>
</clipPath>
</defs>
</svg>
