<svg width="80" height="80" viewBox="0 0 80 80" fill="none" xmlns="http://www.w3.org/2000/svg">
<rect width="80" height="80" rx="24" fill="#FFC258"/>
<g clip-path="url(#clip0_199_265)">
<path d="M54.1687 35.0501C53.1787 35.0501 52.1904 34.8018 51.3237 34.3051C49.4521 33.2351 48.3337 31.3285 48.3337 29.2051C48.3337 27.6801 48.9104 26.2501 49.9621 25.1635C49.9621 25.1635 52.0487 22.5568 52.0971 22.5085C53.2587 21.3751 55.0754 21.3751 56.2371 22.5085C56.2871 22.5568 58.3621 25.1535 58.3621 25.1535C59.4188 26.2468 59.9987 27.6818 59.9987 29.2051C59.9987 31.2951 58.9054 33.1901 57.0704 34.2718C56.1921 34.7901 55.1804 35.0501 54.1687 35.0501ZM20.4887 31.1785C20.8137 31.5035 21.2404 31.6668 21.6671 31.6668C22.0938 31.6668 22.5204 31.5035 22.8454 31.1785L25.8338 28.1901L29.9721 32.3285C27.5821 35.5868 27.8304 40.1868 30.7738 43.1301L39.2254 51.5818C41.4287 53.7851 44.3587 54.9985 47.4754 54.9985H52.6437L57.1554 59.5101C57.4804 59.8351 57.9071 59.9985 58.3337 59.9985C58.7604 59.9985 59.1871 59.8351 59.5121 59.5101C60.1637 58.8585 60.1637 57.8051 59.5121 57.1535L55.0004 52.6418V47.4735C55.0004 45.5451 54.5337 43.6901 53.6571 42.0318L49.5121 46.1768C49.1871 46.5018 48.7604 46.6651 48.3337 46.6651C47.9071 46.6651 47.4804 46.5018 47.1554 46.1768C46.5037 45.5251 46.5037 44.4718 47.1554 43.8201L51.6637 39.3118C51.6354 39.2835 49.0254 36.6651 49.0254 36.6651L44.5138 41.1768C44.1887 41.5018 43.7621 41.6651 43.3354 41.6651C42.9088 41.6651 42.4821 41.5018 42.1571 41.1768C41.5054 40.5251 41.5054 39.4718 42.1571 38.8201L46.6687 34.3085L44.0254 31.6651L39.5138 36.1768C39.1887 36.5018 38.7621 36.6651 38.3354 36.6651C37.9088 36.6651 37.4821 36.5018 37.1571 36.1768C36.5054 35.5251 36.5054 34.4718 37.1571 33.8201L41.4621 29.5151C38.6221 27.8418 35.0104 27.9835 32.3171 29.9568L28.1921 25.8318L31.1804 22.8435C31.8321 22.1918 31.8321 21.1385 31.1804 20.4868C30.5287 19.8351 29.4754 19.8351 28.8237 20.4868L20.4887 28.8218C19.8371 29.4735 19.8371 30.5268 20.4887 31.1785Z" fill="#650B14"/>
</g>
<defs>
<clipPath id="clip0_199_265">
<rect width="40" height="40" fill="white" transform="translate(20 20)"/>
</clipPath>
</defs>
</svg>
